# xmcd CD database file
#
# Track frame offsets:
#	150
#	16067
#	32849
#	49963
#	65978
#	81513
#	92882
#	108444
#	120779
#	135007
#	151656
#	168878
#	183275
#
# Disc length: 2617 seconds
#
# Revision: 0
# Processed by: cddbd v1.4PL0 Copyright (c) Steve Scherf et al.
# Submitted via: CDex 1.50
#
DISCID=9a0a370d
DTITLE=Michele Anastasio - Under Paris Skies
DYEAR=1900
DGENRE=Jazz
TTITLE0=Crazy
TTITLE1=A Nightingale Sang In Berkley Square
TTITLE2=I Will Wait For You
TTITLE3=Under Paris Skies
TTITLE4=Embraceable You
TTITLE5=The Boy From Ipanema
TTITLE6=More
TTITLE7=That's All
TTITLE8=When Do I Think About You
TTITLE9=The Look Of Love
TTITLE10=I Only Have Eyes For You
TTITLE11=That Old Black Magic
TTITLE12=But Not For Me
EXTD=
EXTT0=
EXTT1=
EXTT2=
EXTT3=
EXTT4=
EXTT5=
EXTT6=
EXTT7=
EXTT8=
EXTT9=
EXTT10=
EXTT11=
EXTT12=
PLAYORDER=
